<?xml version="1.0" standalone="no"?>
<!DOCTYPE svg PUBLIC "-//W3C//DTD SVG 1.1//EN" "http://www.w3.org/Graphics/SVG/1.1/DTD/svg11.dtd" >
<svg xmlns="http://www.w3.org/2000/svg">
<metadata>Generated by IcoMoon</metadata>
<defs>
<font id="maicons" horiz-adv-x="1024">
<font-face units-per-em="1024" ascent="960" descent="-64" />
<missing-glyph horiz-adv-x="1024" />
<glyph unicode="&#x20;" horiz-adv-x="512" d="" />
<glyph unicode="&#xe900;" glyph-name="share" d="M853.333 618.667c34.654 0 68.489 10.547 97.001 30.242s50.355 47.603 62.62 80.014c12.268 32.41 14.376 67.787 6.050 101.426-8.329 33.638-26.701 63.945-52.671 86.888-25.973 22.944-58.311 37.438-92.72 41.555s-69.257-2.338-99.905-18.508c-30.652-16.169-55.654-41.286-71.683-72.010s-22.326-65.6-18.051-99.99l-394.809-197.404c-24.108 23.248-54.523 38.889-87.456 44.974-32.933 6.087-66.929 2.347-97.753-10.749s-57.113-34.972-75.593-62.905c-18.48-27.93-28.333-60.681-28.333-94.171s9.854-66.241 28.333-94.171c18.48-27.932 44.769-49.809 75.593-62.905s64.819-16.836 97.753-10.749c32.933 6.084 63.348 21.726 87.456 44.974l394.809-197.404c-4.978-39.95 4.326-80.373 26.271-114.125 21.942-33.755 55.111-58.664 93.642-70.326 38.534-11.662 79.949-9.33 116.927 6.591 36.978 15.918 67.137 44.393 85.148 80.398 18.014 36.005 22.719 77.218 13.284 116.355s-32.401 73.68-64.842 97.522c-32.438 23.842-72.26 35.45-112.43 32.771s-78.1-19.473-107.085-47.411l-394.809 197.404c1.721 13.98 1.721 28.117 0 42.098l394.809 197.404c30.606-29.582 72.363-47.787 118.443-47.787z" />
<glyph unicode="&#xe901;" glyph-name="hamburgermenu" d="M0 740.571c0 24.237 19.648 43.886 43.886 43.886h936.229c24.237 0 43.886-19.648 43.886-43.886s-19.649-43.886-43.886-43.886h-936.229c-24.237 0-43.886 19.648-43.886 43.886zM0 448c0 24.237 19.648 43.886 43.886 43.886h936.229c24.237 0 43.886-19.649 43.886-43.886s-19.649-43.886-43.886-43.886h-936.229c-24.237 0-43.886 19.649-43.886 43.886zM0 155.429c0 24.237 19.648 43.886 43.886 43.886h936.229c24.237 0 43.886-19.649 43.886-43.886s-19.649-43.886-43.886-43.886h-936.229c-24.237 0-43.886 19.649-43.886 43.886z" />
<glyph unicode="&#xe902;" glyph-name="arrrow" d="M317.793-64c-16.501-0.032-32.492 5.713-45.197 16.243-7.151 5.929-13.062 13.21-17.395 21.426s-7.002 17.207-7.855 26.458c-0.853 9.248 0.128 18.573 2.885 27.447 2.757 8.87 7.237 17.108 13.184 24.244l316.381 378.527-305.082 379.233c-5.866 7.223-10.247 15.535-12.89 24.457s-3.498 18.279-2.513 27.532c0.984 9.253 3.788 18.221 8.249 26.387s10.493 15.37 17.748 21.198c7.307 6.429 15.864 11.278 25.133 14.243s19.053 3.983 28.734 2.988c9.682-0.995 19.053-3.98 27.527-8.768s15.865-11.276 21.712-19.057l341.098-423.724c10.388-12.638 16.066-28.488 16.066-44.844 0-16.359-5.678-32.207-16.066-44.844l-353.103-423.724c-7.085-8.545-16.084-15.304-26.268-19.721s-21.266-6.37-32.347-5.703z" />
<glyph unicode="&#xe903;" glyph-name="tag" d="M298.667 746.667c0 23.556-8.333 43.667-25.001 60.333-16.666 16.667-36.777 25-60.333 25s-43.667-8.333-60.333-25c-16.667-16.666-25-36.778-25-60.333s8.333-43.667 25-60.333c16.666-16.668 36.778-25.001 60.333-25.001s43.667 8.333 60.333 25.001c16.668 16.666 25.001 36.777 25.001 60.333zM1010.001 362.667c0-23.556-8.224-43.556-24.668-60l-327.332-328c-17.335-16.444-37.557-24.668-60.668-24.668-23.556 0-43.556 8.224-60 24.668l-476.667 477.333c-16.889 16.444-31.222 38.889-43 67.334s-17.667 54.443-17.667 77.999v277.333c0 23.111 8.444 43.111 25.333 60s36.889 25.333 60 25.333h277.333c23.556 0 49.555-5.889 77.999-17.667 28.446-11.778 51.113-26.111 68.002-43l476.666-475.999c16.444-17.335 24.668-37.557 24.668-60.668z" />
<glyph unicode="&#xe904;" glyph-name="dashboard" d="M0 392v568h456v-568h-456zM0-64v341.333h456v-341.333h-456zM568-64v568h456v-568h-456zM568 960h456v-341.333h-456v341.333z" />
<glyph unicode="&#xe905;" glyph-name="pie-chart" d="M455.11 412.307l323.556-336c-41.877-44.307-90.765-78.769-146.667-103.383-55.902-24.617-114.865-36.924-176.89-36.924-82.566 0-158.716 21.129-228.444 63.386-69.728 42.255-124.938 99.588-165.63 172-40.691 72.41-61.037 151.486-61.037 237.229 0 85.745 20.346 164.821 61.037 237.231 40.691 72.412 95.901 129.744 165.63 172.001s145.877 63.385 228.444 63.385v-468.924zM565.926 408.614h458.074c0-64.41-11.853-125.641-35.556-183.691-23.703-58.052-56.887-108.821-99.554-152.309l-322.963 336zM986.074 487.386h-455.11v472.614c82.569 0 158.716-21.128 228.444-63.385s124.939-99.59 165.63-172.001c40.691-72.41 61.037-151.486 61.037-237.229z" />
<glyph unicode="&#xe906;" glyph-name="search" d="M733.44 299.571l275.456-275.456c9.682-9.69 15.119-22.828 15.114-36.524-0.005-13.699-5.45-26.831-15.14-36.513s-22.828-15.119-36.524-15.114c-13.696 0.005-26.831 5.45-36.513 15.14l-275.456 275.456c-82.345-63.78-185.892-93.793-289.58-83.935-103.688 9.856-199.727 58.844-268.578 136.998-68.851 78.152-105.344 179.599-102.054 283.702s46.116 203.043 119.765 276.692c73.649 73.649 172.59 116.475 276.692 119.765s205.55-33.202 283.702-102.053c78.154-68.851 127.14-164.89 136.998-268.578s-20.155-207.235-83.935-289.58h0.051zM409.6 243.2c81.475 0 159.611 32.366 217.224 89.976 57.61 57.61 89.976 135.749 89.976 217.224s-32.366 159.612-89.976 217.223c-57.613 57.611-135.749 89.977-217.224 89.977s-159.612-32.366-217.223-89.977c-57.611-57.611-89.977-135.748-89.977-217.223s32.366-159.613 89.977-217.224c57.611-57.61 135.749-89.976 217.223-89.976z" />
<glyph unicode="&#xe907;" glyph-name="video" d="M170.667 832c-22.632 0-44.337-8.99-60.34-24.994s-24.994-37.708-24.994-60.34v-597.333c0-22.63 8.99-44.335 24.994-60.339s37.708-24.994 60.34-24.994h682.667c22.63 0 44.335 8.99 60.339 24.994s24.994 37.709 24.994 60.339v597.333c0 22.632-8.99 44.337-24.994 60.34s-37.709 24.994-60.339 24.994h-682.667zM368 591.787c0.947 8.157 3.787 15.98 8.294 22.845s10.556 12.581 17.664 16.692c7.108 4.112 15.079 6.505 23.277 6.989s16.394-0.954 23.938-4.201c21.504-9.216 66.901-29.952 124.416-63.147 40.422-23.101 79.454-48.546 116.907-76.203 6.583-4.898 11.934-11.273 15.616-18.603 3.686-7.334 5.602-15.428 5.602-23.637s-1.916-16.303-5.602-23.637c-3.682-7.33-9.033-13.705-15.616-18.603-37.453-27.627-76.489-53.043-116.907-76.117-40.205-23.484-81.749-44.595-124.416-63.232-7.543-3.255-15.741-4.702-23.942-4.22-8.201 0.478-16.176 2.871-23.287 6.985s-13.161 9.83-17.666 16.7c-4.505 6.869-7.34 14.699-8.278 22.861-5.12 46.242-7.627 92.74-7.509 139.264 0 66.176 4.779 116.011 7.509 139.264z" />
<glyph unicode="&#xe908;" glyph-name="add-circle-solid" d="M512 874.667c-235.648 0-426.667-191.019-426.667-426.667s191.019-426.667 426.667-426.667c235.648 0 426.667 191.019 426.667 426.667s-191.019 426.667-426.667 426.667zM725.333 405.333h-170.667v-170.667h-85.333v170.667h-170.667v85.333h170.667v170.667h85.333v-170.667h170.667v-85.333z" />
<glyph unicode="&#xe909;" glyph-name="add-circle" d="M512 789.333c188.203 0 341.333-153.131 341.333-341.333s-153.131-341.333-341.333-341.333c-188.203 0-341.333 153.131-341.333 341.333s153.131 341.333 341.333 341.333zM512 874.667c-235.648 0-426.667-191.019-426.667-426.667s191.019-426.667 426.667-426.667c235.648 0 426.667 191.019 426.667 426.667s-191.019 426.667-426.667 426.667zM725.333 490.667h-170.667v170.667h-85.333v-170.667h-170.667v-85.333h170.667v-170.667h85.333v170.667h170.667v85.333z" />
<glyph unicode="&#xe90a;" glyph-name="add-square-solid" d="M313.345 788.565c-35.677-3.957-68.972-19.846-94.488-45.092s-41.76-58.369-46.098-94.001c-15.639-133.875-15.639-269.111 0-402.987 8.576-73.344 67.541-130.901 140.629-139.093 132.006-14.618 265.219-14.618 397.226 0 73.088 8.192 132.053 65.749 140.629 139.093 15.642 133.888 15.642 269.141 0 403.029-8.576 73.344-67.541 130.901-140.629 139.093-132.006 14.615-265.22 14.615-397.226 0zM512 661.035c8.486 0 16.627-3.372 22.626-9.373 6.003-6.001 9.374-14.141 9.374-22.627v-149.035h149.035c8.486 0 16.627-3.371 22.626-9.374 6.003-5.999 9.374-14.14 9.374-22.626s-3.371-16.627-9.374-22.626c-5.999-6.003-14.14-9.374-22.626-9.374h-149.035v-149.035c0-8.486-3.371-16.627-9.374-22.626-5.999-6.003-14.14-9.374-22.626-9.374s-16.627 3.371-22.626 9.374c-6.003 5.999-9.374 14.14-9.374 22.626v149.035h-149.034c-8.487 0-16.626 3.371-22.627 9.374-6.001 5.999-9.373 14.14-9.373 22.626s3.372 16.627 9.373 22.626c6.001 6.003 14.141 9.374 22.627 9.374h149.034v149.035c0 8.487 3.371 16.626 9.374 22.627 5.999 6.001 14.14 9.373 22.626 9.373z" />
<glyph unicode="&#xe90b;" glyph-name="add-square" d="M298.966 448c0 8.486 3.372 16.627 9.373 22.626 6.001 6.003 14.141 9.374 22.627 9.374h149.034v149.035c0 8.487 3.371 16.626 9.374 22.627 5.999 6.001 14.14 9.373 22.626 9.373s16.627-3.372 22.626-9.373c6.003-6.001 9.374-14.141 9.374-22.627v-149.035h149.035c8.486 0 16.627-3.371 22.626-9.374 6.003-5.999 9.374-14.14 9.374-22.626s-3.371-16.627-9.374-22.626c-5.999-6.003-14.14-9.374-22.626-9.374h-149.035v-149.035c0-8.486-3.371-16.627-9.374-22.626-5.999-6.003-14.14-9.374-22.626-9.374s-16.627 3.371-22.626 9.374c-6.003 5.999-9.374 14.14-9.374 22.626v149.035h-149.034c-8.487 0-16.626 3.371-22.627 9.374-6.001 5.999-9.373 14.14-9.373 22.626zM312.191 799.189c132.797 14.723 266.817 14.723 399.617 0 77.952-8.704 140.885-70.101 150.016-148.48 15.787-134.699 15.787-270.763 0-405.461-9.173-78.379-72.107-139.733-150.016-148.48-132.8-14.724-266.82-14.724-399.617 0-77.952 8.747-140.885 70.101-150.016 148.48-15.716 134.699-15.716 270.763 0 405.461 9.131 78.379 72.107 139.776 150.016 148.48zM704.725 735.616c-128.094 14.198-257.361 14.198-385.452 0-23.712-2.631-45.845-13.178-62.824-29.94s-27.809-38.757-30.744-62.433c-15.175-129.749-15.175-260.821 0-390.571 2.944-23.667 13.779-45.653 30.757-62.409 16.977-16.751 39.105-27.294 62.811-29.922 127.020-14.165 258.433-14.165 385.452 0 23.697 2.637 45.815 13.184 62.784 29.935s27.797 38.733 30.741 62.396c15.172 129.749 15.172 260.821 0 390.571-2.953 23.655-13.786 45.626-30.754 62.369s-39.078 27.283-62.771 29.919z" />
<glyph unicode="&#xe90d;" glyph-name="bookmark-solid" d="M213.333 64v682.667c0 23.467 8.363 43.549 25.088 60.245s36.807 25.059 60.245 25.088h426.667c23.467 0 43.563-8.363 60.288-25.088s25.075-36.807 25.045-60.245v-682.667l-298.667 128-298.667-128z" />
<glyph unicode="&#xe90e;" glyph-name="bookmark" d="M213.333 64v682.667c0 23.467 8.363 43.549 25.088 60.245s36.807 25.059 60.245 25.088h426.667c23.467 0 43.563-8.363 60.288-25.088s25.075-36.807 25.045-60.245v-682.667l-298.667 128-298.667-128zM298.667 194.133l213.333 91.733 213.333-91.733v552.533h-426.667v-552.533z" />
<glyph unicode="&#xe90f;" glyph-name="comment-solid" d="M384 21.333c-11.316 0-22.168 4.497-30.17 12.497s-12.497 18.854-12.497 30.17v128h-170.667c-22.632 0-44.337 8.99-60.34 24.994s-24.994 37.709-24.994 60.339v512c0 22.632 8.99 44.337 24.994 60.34s37.708 24.994 60.34 24.994h682.667c22.63 0 44.335-8.99 60.339-24.994s24.994-37.708 24.994-60.34v-512c0-22.63-8.99-44.335-24.994-60.339s-37.709-24.994-60.339-24.994h-260.267l-157.867-158.293c-8.533-8.107-19.2-12.373-29.867-12.373h-21.333z" />
<glyph unicode="&#xe910;" glyph-name="comment" d="M384 21.333c-11.316 0-22.168 4.497-30.17 12.497s-12.497 18.854-12.497 30.17v128h-170.667c-22.632 0-44.337 8.99-60.34 24.994s-24.994 37.709-24.994 60.339v512c0 22.632 8.99 44.337 24.994 60.34s37.708 24.994 60.34 24.994h682.667c22.63 0 44.335-8.99 60.339-24.994s24.994-37.708 24.994-60.34v-512c0-22.63-8.99-44.335-24.994-60.339s-37.709-24.994-60.339-24.994h-260.267l-157.867-158.293c-8.533-8.107-19.2-12.373-29.867-12.373h-21.333zM426.667 277.333v-131.413l131.413 131.413h295.253v512h-682.667v-512h256z" />
<glyph unicode="&#xe911;" glyph-name="download" d="M512 277.333l-213.333 213.333 59.733 61.867 110.933-110.933v347.733h85.333v-347.733l110.933 110.933 59.733-61.867-213.333-213.333zM256 106.667c-23.467 0-43.549 8.35-60.245 25.045s-25.059 36.791-25.088 60.288v128h85.333v-128h512v128h85.333v-128c0-23.467-8.35-43.563-25.045-60.288s-36.791-25.075-60.288-25.045h-512z" />
<glyph unicode="&#xe912;" glyph-name="edit-solid" d="M128 224v-160h160l471.893 471.893-160 160-471.893-471.893zM883.627 659.627c3.955 3.947 7.095 8.636 9.233 13.797 2.142 5.162 3.243 10.695 3.243 16.283s-1.101 11.121-3.243 16.282c-2.138 5.161-5.278 9.85-9.233 13.798l-99.84 99.84c-3.947 3.955-8.636 7.093-13.798 9.234-5.158 2.141-10.692 3.243-16.282 3.243s-11.123-1.102-16.282-3.243c-5.163-2.141-9.852-5.279-13.798-9.234l-78.080-78.080 160-160 78.080 78.080z" />
<glyph unicode="&#xe913;" glyph-name="edit" d="M599.893 575.147l39.253-39.253-386.56-386.56h-39.253v39.253l386.56 386.56zM753.493 832c-10.667 0-21.76-4.267-29.867-12.373l-78.080-78.080 160-160 78.080 78.080c3.955 3.947 7.095 8.636 9.233 13.798 2.142 5.161 3.243 10.694 3.243 16.282s-1.101 11.121-3.243 16.282c-2.138 5.162-5.278 9.85-9.233 13.798l-99.84 99.84c-8.533 8.533-19.2 12.373-30.293 12.373zM599.893 695.893l-471.893-471.893v-160h160l471.893 471.893-160 160z" />
<glyph unicode="&#xe914;" glyph-name="gallery" d="M857.316 874.667c0 7.544-2.998 14.779-8.329 20.113-5.336 5.334-12.572 8.331-20.116 8.331h-625.777c-7.544 0-14.779-2.997-20.114-8.331s-8.331-12.569-8.331-20.113v-28.444h682.666v28.444zM913.636 760.889c0 7.544-2.998 14.779-8.329 20.113-5.336 5.334-12.572 8.331-20.116 8.331h-739.556c-7.544 0-14.779-2.997-20.114-8.331s-8.331-12.569-8.331-20.113v-28.444h796.444v28.444zM913.636 675.556h-803.271c-14.182 0-27.785-5.634-37.813-15.663s-15.663-23.631-15.663-37.813v-518.827c0-14.182 5.634-27.785 15.663-37.814s23.631-15.662 37.813-15.662h803.271c14.182 0 27.785 5.632 37.814 15.662s15.662 23.632 15.662 37.814v518.827c0 14.182-5.632 27.785-15.662 37.813s-23.632 15.663-37.814 15.663zM243.484 577.422c16.877 0 33.376-5.005 47.409-14.382s24.97-22.704 31.429-38.296c6.459-15.593 8.149-32.75 4.856-49.304s-11.42-31.758-23.354-43.692c-11.934-11.934-27.139-20.061-43.692-23.354s-33.711-1.603-49.304 4.856c-15.592 6.459-28.919 17.396-38.296 31.429s-14.382 30.532-14.382 47.409c0 22.632 8.991 44.337 24.994 60.34s37.708 24.994 60.34 24.994zM853.333 163.556h-682.667l212.196 212.48c3.783 3.755 8.895 5.86 14.222 5.86s10.44-2.105 14.222-5.86l104.676-104.676 144.213 148.196c3.783 3.752 8.892 5.857 14.222 5.857s10.439-2.105 14.222-5.857l164.693-164.693v-91.307z" />
<glyph unicode="&#xe915;" glyph-name="hashtag" d="M853.333 533.333v85.333h-170.667v170.667h-85.333v-170.667h-170.667v170.667h-85.333v-170.667h-170.667v-85.333h170.667v-170.667h-170.667v-85.333h170.667v-170.667h85.333v170.667h170.667v-170.667h85.333v170.667h170.667v85.333h-170.667v170.667h170.667zM597.333 362.667h-170.667v170.667h170.667v-170.667z" />
<glyph unicode="&#xe916;" glyph-name="image" d="M213.333 64c-23.467 0-43.549 8.35-60.245 25.045s-25.059 36.791-25.088 60.288v597.333c0 23.467 8.363 43.549 25.088 60.245s36.807 25.059 60.245 25.088h597.333c23.467 0 43.563-8.363 60.288-25.088s25.075-36.807 25.045-60.245v-597.333c0-23.467-8.35-43.563-25.045-60.288s-36.791-25.075-60.288-25.045h-597.333zM213.333 149.333h597.333v597.333h-597.333v-597.333zM256 234.667h512l-160 213.333-128-170.667-96 128-128-170.667z" />
<glyph unicode="&#xe917;" glyph-name="share1" d="M725.333 21.333c-35.554 0-65.779 12.446-90.667 37.333s-37.333 55.113-37.333 90.667c0 4.267 1.067 14.221 3.2 29.867l-299.733 174.933c-11.378-10.667-24.533-19.029-39.467-25.088s-30.933-9.075-48-9.045c-35.555 0-65.778 12.446-90.667 37.333s-37.333 55.113-37.333 90.667c0 35.554 12.445 65.779 37.333 90.667 24.889 24.889 55.111 37.333 90.667 37.333 17.067 0 33.067-3.029 48-9.088s28.089-14.407 39.467-25.045l299.733 174.933c-1.421 4.978-2.304 9.771-2.645 14.379s-0.525 9.771-0.555 15.488c0 35.555 12.446 65.778 37.333 90.667s55.113 37.333 90.667 37.333c35.554 0 65.779-12.445 90.667-37.333s37.333-55.111 37.333-90.667c0-35.555-12.446-65.778-37.333-90.667s-55.113-37.333-90.667-37.333c-17.067 0-33.067 3.029-48 9.088s-28.087 14.407-39.467 25.045l-299.733-174.933c1.422-4.979 2.318-9.783 2.688-14.421s0.541-9.783 0.512-15.445c-0.029-5.662-0.199-10.825-0.512-15.488s-1.209-9.459-2.688-14.379l299.733-174.933c11.379 10.667 24.533 19.017 39.467 25.045s30.933 9.058 48 9.088c35.554 0 65.779-12.446 90.667-37.333s37.333-55.113 37.333-90.667c0-35.554-12.446-65.779-37.333-90.667s-55.113-37.333-90.667-37.333z" />
<glyph unicode="&#xe918;" glyph-name="tag-solid" d="M449.579 867.669c17.229 1.568 34.594-0.373 51.046-5.705 16.457-5.331 31.663-13.943 44.698-25.314l6.4-5.973 333.739-333.781c22.967-22.972 36.343-53.82 37.41-86.285 1.071-32.469-10.244-64.128-31.65-88.563l-5.76-6.144-241.365-241.365c-22.972-22.967-53.82-36.343-86.285-37.41-32.469-1.071-64.128 10.244-88.563 31.65l-6.144 5.76-333.824 333.781c-12.225 12.224-21.847 26.799-28.285 42.842-6.438 16.047-9.56 33.229-9.176 50.513l0.469 8.747 20.139 221.227c2.586 28.511 14.654 55.331 34.276 76.176s45.667 34.509 73.969 38.81l7.637 0.896 221.269 20.139zM342.357 617.6c-7.925-7.925-14.212-17.335-18.502-27.69s-6.497-21.454-6.497-32.662c0-11.209 2.208-22.307 6.497-32.661s10.576-19.763 18.502-27.691c7.926-7.927 17.335-14.212 27.69-18.5 10.355-4.292 21.454-6.498 32.662-6.498s22.307 2.206 32.661 6.498c10.355 4.288 19.763 10.573 27.691 18.5 16.004 16.004 24.998 37.716 24.998 60.352s-8.994 44.346-24.998 60.352c-16.004 16.006-37.716 24.998-60.352 24.998s-44.346-8.992-60.352-24.998z" />
<glyph unicode="&#xe919;" glyph-name="tag1" d="M449.579 867.669c17.229 1.568 34.594-0.373 51.046-5.705 16.457-5.331 31.663-13.943 44.698-25.314l6.4-5.973 333.739-333.781c22.967-22.972 36.343-53.82 37.41-86.285 1.071-32.469-10.244-64.128-31.65-88.563l-5.76-6.144-241.365-241.365c-22.972-22.967-53.82-36.343-86.285-37.41-32.469-1.071-64.128 10.244-88.563 31.65l-6.144 5.76-333.824 333.781c-12.225 12.224-21.847 26.799-28.285 42.842-6.438 16.047-9.56 33.229-9.176 50.513l0.469 8.747 20.139 221.227c2.586 28.511 14.654 55.331 34.276 76.176s45.667 34.509 73.969 38.81l7.637 0.896 221.269 20.139zM462.72 782.805l-5.419-0.128-221.227-20.139c-9.073-0.819-17.645-4.521-24.463-10.563s-11.522-14.108-13.425-23.016l-0.725-5.035-20.139-221.227c-0.97-10.752 2.171-21.47 8.789-29.995l3.541-4.053 333.781-333.781c7.347-7.347 17.122-11.759 27.49-12.412s20.621 2.5 28.83 8.87l4.011 3.541 241.365 241.365c7.347 7.347 11.759 17.122 12.412 27.49s-2.5 20.621-8.87 28.83l-3.541 4.011-333.781 333.781c-7.625 7.621-17.856 12.072-28.629 12.459zM312.192 647.765c11.887 11.887 25.999 21.316 41.53 27.749s32.177 9.745 48.988 9.745c16.811 0 33.455-3.311 48.986-9.745 15.535-6.433 29.645-15.862 41.532-27.749s21.316-25.999 27.75-41.53c6.43-15.531 9.745-32.177 9.745-48.988s-3.315-33.455-9.745-48.986c-6.434-15.535-15.863-29.645-27.75-41.532-24.009-24.009-56.567-37.495-90.517-37.495s-66.511 13.487-90.517 37.495c-24.007 24.009-37.493 56.567-37.493 90.517s13.487 66.511 37.493 90.517zM432.896 587.435c-3.959 3.964-8.665 7.109-13.841 9.256s-10.726 3.252-16.33 3.254c-5.604 0.002-11.154-1.1-16.332-3.243s-9.884-5.284-13.848-9.246c-3.964-3.961-7.109-8.665-9.256-13.841s-3.252-10.726-3.254-16.33c-0.002-5.604 1.1-11.154 3.243-16.332s5.285-9.885 9.246-13.848c8-8.004 18.854-12.506 30.172-12.51s22.174 4.489 30.18 12.489c8.004 8 12.506 18.854 12.51 30.172s-4.489 22.174-12.489 30.18z" />
<glyph unicode="&#xe91a;" glyph-name="trash-solid" d="M785.579 682.667l-34.176-580.992c-1.271-21.734-10.807-42.159-26.645-57.092-15.838-14.938-36.787-23.253-58.56-23.249h-308.395c-21.771-0.004-42.72 8.311-58.56 23.249-15.84 14.933-25.372 35.358-26.645 57.092l-34.091 580.992h-89.173v42.667c0 5.658 2.248 11.084 6.249 15.085s9.427 6.249 15.085 6.249h682.667c5.658 0 11.085-2.248 15.087-6.249 3.998-4 6.246-9.427 6.246-15.085v-42.667h-89.088zM426.667 853.333h170.667c5.658 0 11.085-2.248 15.087-6.249 3.998-4 6.246-9.427 6.246-15.085v-42.667h-213.333v42.667c0 5.658 2.248 11.084 6.249 15.085s9.427 6.249 15.085 6.249zM384 576l21.333-384h64l-17.067 384h-68.267zM576 576l-21.333-384h64l21.333 384h-64z" />
<glyph unicode="&#xe91b;" glyph-name="trash" d="M289.024 686.933l34.645-582.315c0.522-8.678 4.335-16.832 10.662-22.793 6.327-5.965 14.691-9.289 23.386-9.293h308.565c8.695 0.004 17.058 3.328 23.386 9.293 6.327 5.961 10.142 14.114 10.662 22.793l34.645 582.315h-445.952zM786.304 686.933l-34.859-585.344c-1.293-21.713-10.829-42.108-26.658-57.024s-36.753-23.228-58.505-23.232h-308.565c-21.749 0.004-42.676 8.316-58.505 23.232s-25.364 35.311-26.658 57.024l-34.859 585.344h-88.363v29.867c0 5.658 2.248 11.084 6.249 15.085s9.427 6.249 15.085 6.249h682.667c5.658 0 11.085-2.248 15.087-6.249 3.998-4 6.246-9.427 6.246-15.085v-29.867h-88.363zM597.333 832c5.658 0 11.085-2.248 15.087-6.249 3.998-4 6.246-9.427 6.246-15.085v-29.867h-213.333v29.867c0 5.658 2.248 11.084 6.249 15.085s9.427 6.249 15.085 6.249h170.667zM405.333 576h51.2l21.333-384h-51.2l-21.333 384zM567.467 576h51.2l-21.333-384h-51.2l21.333 384z" />
<glyph unicode="&#xe91c;" glyph-name="upload" d="M469.333 277.333v347.733l-110.933-110.933-59.733 61.867 213.333 213.333 213.333-213.333-59.733-61.867-110.933 110.933v-347.733h-85.333zM256 106.667c-23.467 0-43.549 8.35-60.245 25.045s-25.059 36.791-25.088 60.288v128h85.333v-128h512v128h85.333v-128c0-23.467-8.35-43.563-25.045-60.288s-36.791-25.075-60.288-25.045h-512z" />
<glyph unicode="&#xe91d;" glyph-name="user-solid" d="M266.667 661.333c0 65.066 25.847 127.468 71.856 173.477s108.41 71.857 173.477 71.857c65.067 0 127.467-25.847 173.478-71.857 46.007-46.009 71.855-108.41 71.855-173.477s-25.847-127.468-71.855-173.478c-46.012-46.007-108.412-71.855-173.478-71.855s-127.468 25.847-173.477 71.855c-46.009 46.010-71.856 108.412-71.856 173.478zM503.381 351.531c1.835 0.277 3.691 0.435 5.547 0.469h6.144c1.877 0 3.725-0.158 5.547-0.469l312.875-55.083c57.344-13.227 118.955-49.621 130.944-120.32l0.171-1.237 4.864-37.419v-0.085c11.264-85.717-56.704-148.053-136.96-148.053-1.771 0.034-3.537 0.175-5.291 0.427h-635.733c-80.256 0-148.267 62.379-136.96 148.139l4.864 37.077 0.213 1.28c11.947 69.419 74.069 107.861 131.285 120.277l1.237 0.256 311.253 54.741z" />
<glyph unicode="&#xe91f;" glyph-name="users-solid" d="M512 725.333c39.607 0 77.589-15.733 105.596-43.739s43.738-65.989 43.738-105.594c0-39.606-15.731-77.589-43.738-105.596s-65.988-43.738-105.596-43.738c-39.607 0-77.589 15.731-105.594 43.738s-43.739 65.99-43.739 105.596c0 39.606 15.733 77.589 43.739 105.594s65.987 43.739 105.594 43.739zM213.333 618.667c23.893 0 46.080-6.4 65.28-17.92-6.4-61.013 11.52-121.6 48.213-168.96-21.333-40.96-64-69.12-113.493-69.12-33.948 0-66.505 13.487-90.51 37.491s-37.49 56.563-37.49 90.509c0 33.946 13.486 66.505 37.49 90.51s56.562 37.49 90.51 37.49zM810.667 618.667c33.946 0 66.505-13.486 90.509-37.49s37.491-56.564 37.491-90.51c0-33.946-13.487-66.505-37.491-90.509s-56.563-37.491-90.509-37.491c-49.493 0-92.16 28.16-113.493 69.12 37.184 48.034 54.447 108.537 48.213 168.96 19.2 11.52 41.387 17.92 65.28 17.92zM234.667 181.333c0 88.32 124.16 160 277.333 160s277.333-71.68 277.333-160v-74.667h-554.667v74.667zM0 106.667v64c0 59.307 80.64 109.227 189.867 123.733-25.173-29.013-40.533-69.12-40.533-113.067v-74.667h-149.333zM1024 106.667h-149.333v74.667c0 43.947-15.36 84.053-40.533 113.067 109.227-14.507 189.867-64.427 189.867-123.733v-64z" />
<glyph unicode="&#xe920;" glyph-name="image-solid" d="M213.333 64c-23.467 0-43.549 8.35-60.245 25.045s-25.059 36.791-25.088 60.288v597.333c0 23.467 8.363 43.549 25.088 60.245s36.807 25.059 60.245 25.088h597.333c23.467 0 43.563-8.363 60.288-25.088s25.075-36.807 25.045-60.245v-597.333c0-23.467-8.35-43.563-25.045-60.288s-36.791-25.075-60.288-25.045h-597.333zM256 234.667h512l-160 213.333-128-170.667-96 128-128-170.667z" />
<glyph unicode="&#xe921;" glyph-name="category" d="M469.333 384v-341.333h-341.333v341.333h341.333zM512 874.667l234.667-384h-469.333l234.667 384zM746.667 405.333c106.667 0 192-85.333 192-192s-85.333-192-192-192c-106.667 0-192 85.333-192 192s85.333 192 192 192z" />
</font>
</defs>
</svg>
