<?xml version="1.0" standalone="no"?>
<!DOCTYPE svg PUBLIC "-//W3C//DTD SVG 1.1//EN" "http://www.w3.org/Graphics/SVG/1.1/DTD/svg11.dtd" >
<svg xmlns="http://www.w3.org/2000/svg">
<metadata>Generated by IcoMoon</metadata>
<defs>
<font id="maicons" horiz-adv-x="1024">
<font-face units-per-em="1024" ascent="960" descent="-64" />
<missing-glyph horiz-adv-x="1024" />
<glyph unicode="&#x20;" horiz-adv-x="512" d="" />
<glyph unicode="&#xe900;" glyph-name="basil_filter-outline" d="M767.403 728.576c-169.741 18.933-341.063 18.933-510.805 0-2.602-0.298-5.077-1.289-7.165-2.87s-3.715-3.693-4.708-6.117c-0.994-2.423-1.319-5.069-0.942-7.661s1.443-5.035 3.087-7.075l150.059-185.515c53.751-66.449 83.072-149.329 83.072-234.795v-123.264l64-46.933v170.24c0.009 85.453 29.333 168.316 83.072 234.752l150.059 185.515c1.643 2.039 2.709 4.483 3.089 7.075 0.375 2.592 0.051 5.238-0.943 7.661s-2.62 4.536-4.71 6.117c-2.086 1.581-4.561 2.572-7.164 2.87zM249.515 792.192c174.461 19.496 350.553 19.496 525.013 0 61.696-6.912 91.435-79.275 52.395-127.573l-150.059-185.515c-44.553-55.057-68.86-123.733-68.864-194.56v-233.344c0.004-5.918-1.634-11.721-4.727-16.764-3.098-5.043-7.531-9.131-12.809-11.806s-11.196-3.831-17.092-3.345c-5.901 0.486-11.546 2.598-16.316 6.101l-128 93.867c-4.050 2.974-7.343 6.861-9.611 11.349-2.268 4.484-3.448 9.438-3.444 14.464v139.52c0 70.827-24.32 139.477-68.821 194.56l-150.059 185.429c-39.083 48.299-9.387 120.704 52.395 127.616z" />
<glyph unicode="&#xe901;" glyph-name="basil_filter-solid" d="M790.315 779.691c-184.969 20.682-371.663 20.682-556.629 0-10.45-1.162-20.396-5.116-28.792-11.446s-14.934-14.803-18.927-24.531c-3.993-9.727-5.295-20.35-3.767-30.754s5.827-20.204 12.446-28.374l160.811-198.784c46.066-56.947 71.202-127.97 71.211-201.216v-134.059c-0.003-5.026 1.178-9.98 3.443-14.468 2.27-4.484 5.564-8.371 9.613-11.345l118.229-86.699c3.691-2.705 8.055-4.335 12.612-4.71 4.561-0.371 9.135 0.525 13.214 2.594s7.505 5.227 9.899 9.126c2.394 3.9 3.661 8.384 3.657 12.958v226.603c0.013 73.263 25.165 144.307 71.253 201.259l160.768 198.827c6.609 8.17 10.897 17.967 12.42 28.364 1.519 10.397 0.218 21.012-3.776 30.733s-10.526 18.188-18.914 24.515c-8.388 6.327-18.325 10.239-28.77 11.406z" />
<glyph unicode="&#xe902;" glyph-name="bx_up-arrow" d="M128 149.333h768c7.774 0.026 15.398 2.167 22.046 6.204 6.647 4.032 12.066 9.805 15.68 16.691 3.614 6.882 5.278 14.626 4.817 22.387s-3.029 15.249-7.428 21.662l-384 554.667c-15.915 22.997-54.229 22.997-70.187 0l-384-554.667c-4.445-6.396-7.051-13.892-7.536-21.666s1.17-15.535 4.785-22.434c3.615-6.899 9.052-12.681 15.721-16.704 6.668-4.028 14.313-6.153 22.103-6.14zM512 671.701l302.592-437.035h-605.184l302.592 437.035z" />
<glyph unicode="&#xe903;" glyph-name="bx_user" d="M512 874.667c-42.193 0-83.439-12.512-118.522-35.953s-62.426-56.759-78.573-95.741c-16.147-38.982-20.371-81.876-12.14-123.258s28.55-79.395 58.385-109.229c29.835-29.837 67.846-50.155 109.228-58.385 41.387-8.235 84.279-4.006 123.26 12.139s72.299 43.49 95.74 78.573c23.445 35.082 35.955 76.328 35.955 118.522 0 56.579-22.477 110.842-62.485 150.849-40.004 40.008-94.268 62.484-150.848 62.484zM512 533.333c-25.314 0-50.065 7.507-71.113 21.572-21.050 14.065-37.456 34.056-47.144 57.445s-12.223 49.126-7.284 73.955c4.939 24.829 17.13 47.637 35.031 65.538 17.9 17.901 40.709 30.092 65.537 35.031 24.832 4.939 50.569 2.404 73.958-7.284 23.386-9.688 43.379-26.094 57.442-47.144 14.067-21.050 21.572-45.797 21.572-71.113 0-33.948-13.487-66.505-37.491-90.51s-56.563-37.49-90.509-37.49zM896 64v42.667c0 79.211-31.467 155.179-87.479 211.187-56.009 56.013-131.977 87.479-211.187 87.479h-170.667c-79.212 0-155.178-31.467-211.189-87.479-56.011-56.009-87.477-131.977-87.477-211.187v-42.667h85.333v42.667c0 56.58 22.476 110.844 62.484 150.848 40.008 40.009 94.27 62.485 150.849 62.485h170.667c56.58 0 110.844-22.477 150.848-62.485 40.009-40.004 62.485-94.268 62.485-150.848v-42.667h85.333z" />
<glyph unicode="&#xe904;" glyph-name="bxs_trash" d="M256 661.333h-42.667v-554.667c0-22.63 8.99-44.335 24.994-60.339s37.708-24.994 60.34-24.994h426.667c22.63 0 44.335 8.99 60.339 24.994s24.994 37.709 24.994 60.339v554.667h-554.667zM426.667 149.333h-85.333v384h85.333v-384zM682.667 149.333h-85.333v384h85.333v-384zM709.035 789.333l-69.035 85.333h-256l-69.035-85.333h-186.965v-85.333h768v85.333h-186.965z" />
<glyph unicode="&#xe905;" glyph-name="bxs_up-arrow" d="M128 149.333h768c7.774 0.026 15.398 2.167 22.046 6.204 6.647 4.032 12.066 9.805 15.68 16.687 3.61 6.886 5.278 14.626 4.817 22.391-0.461 7.761-3.029 15.249-7.428 21.662l-384 554.666c-15.915 22.997-54.229 22.997-70.187 0l-384-554.666c-4.445-6.4-7.051-13.892-7.536-21.666s1.17-15.535 4.785-22.434c3.615-6.899 9.052-12.681 15.721-16.708 6.668-4.023 14.313-6.148 22.103-6.135z" />
<glyph unicode="&#xe906;" glyph-name="carbon_add-filled" d="M512 896c-118.371-1.436-231.489-49.097-315.196-132.804s-131.368-196.825-132.804-315.196c1.436-118.371 49.097-231.488 132.804-315.194 83.707-83.712 196.825-131.373 315.196-132.806 118.371 1.434 231.488 49.094 315.194 132.806 83.712 83.706 131.373 196.823 132.806 315.194-1.434 118.371-49.094 231.489-132.806 315.196-83.706 83.708-196.823 131.368-315.194 132.804zM768 416h-224v-224h-64v224h-224v64h224v224h64v-224h224v-64z" />
<glyph unicode="&#xe907;" glyph-name="chart-pie-solid" d="M576 874.667c-7.595 0-15.189-0.555-20.992-0.939l-3.157-0.213c-10.807-0.715-20.937-5.512-28.335-13.419-7.403-7.907-11.516-18.333-11.516-29.162v-340.267c0-11.315 4.497-22.17 12.497-30.17s18.854-12.497 30.17-12.497h340.267c10.829 0 21.257 4.113 29.163 11.516 7.906 7.398 12.702 17.527 13.419 28.335l0.213 3.157c0.559 6.985 0.87 13.986 0.939 20.992 0 47.626-9.382 94.786-27.605 138.787-18.227 44.001-44.941 83.981-78.618 117.658s-73.655 60.39-117.658 78.616c-44.002 18.225-91.162 27.606-138.786 27.606zM469.333 702.933c0 5.837-1.199 11.612-3.516 16.968-2.321 5.356-5.717 10.179-9.975 14.17-4.262 3.991-9.293 7.066-14.788 9.034s-11.337 2.788-17.161 2.409c-69.556-4.562-136.323-29.072-192.311-70.597s-98.822-98.304-123.376-163.541c-24.554-65.237-29.788-136.171-15.074-204.305s48.751-130.586 98.037-179.878c49.286-49.289 111.734-83.332 179.867-98.057 68.132-14.72 139.065-9.493 204.307 15.053 65.237 24.546 122.022 67.375 163.554 123.358s66.048 122.748 70.618 192.303c0.384 5.828-0.431 11.674-2.394 17.173-1.967 5.5-5.043 10.539-9.033 14.801-3.994 4.267-8.819 7.663-14.178 9.988-5.359 2.321-11.136 3.52-16.977 3.52h-297.6v297.6z" />
<glyph unicode="&#xe908;" glyph-name="dashboard-solid" d="M554.667 576v256h341.333v-256h-341.333zM128 405.333v426.667h341.333v-426.667h-341.333zM554.667 64v426.667h341.333v-426.667h-341.333zM128 64v256h341.333v-256h-341.333z" />
<glyph unicode="&#xe909;" glyph-name="dashboard" d="M554.667 576v256h341.333v-256h-341.333zM128 405.333v426.667h341.333v-426.667h-341.333zM554.667 64v426.667h341.333v-426.667h-341.333zM128 64v256h341.333v-256h-341.333zM213.333 490.667h170.667v256h-170.667v-256zM640 149.333h170.667v256h-170.667v-256zM640 661.333h170.667v85.333h-170.667v-85.333zM213.333 149.333h170.667v85.333h-170.667v-85.333z" />
<glyph unicode="&#xe90a;" glyph-name="eva_arrow-up-fill" d="M691.627 277.333h-359.253c-14.183-0.021-28.082 3.977-40.087 11.529-12.006 7.548-21.628 18.347-27.753 31.138-7.169 15.177-9.931 32.064-7.969 48.738 1.961 16.67 8.566 32.457 19.063 45.555l179.627 217.6c7.049 8.134 15.765 14.656 25.557 19.127 9.788 4.471 20.425 6.784 31.189 6.784s21.402-2.314 31.189-6.784c9.792-4.471 18.509-10.993 25.557-19.127l179.627-217.6c10.496-13.099 17.101-28.885 19.063-45.555 1.963-16.674-0.802-33.562-7.97-48.738-6.123-12.791-15.748-23.59-27.75-31.138-12.006-7.552-25.907-11.55-40.090-11.529z" />
<glyph unicode="&#xe90b;" glyph-name="fa-solid_sort" d="M274 383.999h476c42.8 0 64.2-51.8 34-82.003l-238-237.997c-18.8-18.803-49.2-18.803-67.8 0l-238.2 237.997c-30.2 30.203-8.8 82.003 34 82.003zM784 593.999l-238 238c-18.8 18.8-49.2 18.8-67.8 0l-238.2-238c-30.2-30.2-8.8-82 34-82h476c42.8 0 64.2 51.8 34 82z" />
<glyph unicode="&#xe90c;" glyph-name="file-outline" d="M597.333 874.667h-341.333c-22.632 0-44.337-8.99-60.34-24.994s-24.994-37.708-24.994-60.34v-682.667c0-22.63 8.99-44.335 24.994-60.339s37.708-24.994 60.34-24.994h512c22.63 0 44.335 8.99 60.339 24.994s24.994 37.709 24.994 60.339v512l-256 256zM768 106.667h-512v682.667h298.667v-213.333h213.333v-469.333z" />
<glyph unicode="&#xe90d;" glyph-name="file-outline2" d="M849.195 593.664c-2.027 4.629-4.855 8.862-8.363 12.501l-256 256c-3.639 3.506-7.872 6.337-12.501 8.363-1.28 0.597-2.645 0.939-4.011 1.408-3.571 1.21-7.287 1.942-11.051 2.176-0.896 0.085-1.707 0.555-2.603 0.555h-298.667c-47.061 0-85.333-38.272-85.333-85.333v-682.667c0-47.061 38.272-85.333 85.333-85.333h512c47.061 0 85.333 38.272 85.333 85.333v469.333c0 0.896-0.469 1.707-0.555 2.645-0.235 3.764-0.964 7.479-2.176 11.051-0.397 1.365-0.866 2.688-1.408 3.968zM707.669 618.667h-110.336v110.336l110.336-110.336zM256 106.667v682.667h256v-213.333c0-11.316 4.497-22.168 12.497-30.17s18.854-12.497 30.17-12.497h213.333l0.085-426.667h-512.085zM341.333 448h341.333v-85.333h-341.333v85.333zM341.333 277.333h341.333v-85.333h-341.333v85.333zM341.333 618.667h85.333v-85.333h-85.333v85.333z" />
<glyph unicode="&#xe90e;" glyph-name="file-solid" d="M554.667 576v234.667l234.667-234.667zM256 874.667c-47.36 0-85.333-37.973-85.333-85.333v-682.667c0-22.63 8.99-44.335 24.994-60.339s37.708-24.994 60.34-24.994h512c22.63 0 44.335 8.99 60.339 24.994s24.994 37.709 24.994 60.339v512l-256 256h-341.333z" />
<glyph unicode="&#xe90f;" glyph-name="file" d="M768 21.333c22.63 0 44.335 8.99 60.339 24.994s24.994 37.709 24.994 60.339v512l-256 256h-341.333c-22.632 0-44.337-8.99-60.34-24.994s-24.994-37.708-24.994-60.34v-682.667c0-22.63 8.99-44.335 24.994-60.339s37.708-24.994 60.34-24.994h512zM554.667 789.333l213.333-213.333h-213.333v213.333zM298.667 618.667h128v-85.333h-128v85.333zM298.667 448h426.667v-85.333h-426.667v85.333zM298.667 277.333h426.667v-85.333h-426.667v85.333z" />
<glyph unicode="&#xe910;" d="M0 192c0-30.174 11.987-59.113 33.325-80.452s50.277-33.326 80.453-33.326h796.444c30.174 0 59.113 11.986 80.452 33.326s33.326 50.278 33.326 80.452v113.778h-1024v-113.778z" />
<glyph unicode="&#xe911;" d="M0 590.222h1024v-284.444h-1024v284.444z" />
<glyph unicode="&#xe912;" d="M1024 590.222v113.778c0 30.176-11.986 59.116-33.326 80.453s-50.278 33.325-80.452 33.325h-796.444c-30.176 0-59.116-11.987-80.453-33.325s-33.325-50.277-33.325-80.453v-113.778h1024z" />
<glyph unicode="&#xe913;" d="M0 305.778h1024v-28.444h-1024v28.444z" />
<glyph unicode="&#xe914;" d="M553.671 534.215c27.221-13.938 86.414-83.996 22.699-163.015 39.566 8.761 89.941 125.383-22.699 163.015zM470.13 534.215c-112.612-37.632-62.265-154.254-22.699-163.015-63.716 79.019-4.523 149.077 22.699 163.015zM511.46 538.283c1.138-5.604 31.317-12.402 27.705 16.299-4.779-11.605-18.603-11.264-27.534-5.888-12.288-6.855-23.751-5.177-28.103 6.457-4.21-21.447 16.697-27.733 27.932-16.868z" />
<glyph unicode="&#xe915;" d="M584.192 450.731c-0.427 35.499-19.257 66.901-37.803 79.616 12.231-14.99 49.835-97.735-22.329-152.206l1.337 144.981-13.511 11.89-13.511-11.321 2.276-146.375-0.512 0.427c-72.903 54.443-35.072 137.586-22.812 152.604-18.546-12.715-37.404-44.117-37.803-79.616-0.37-30.464 13.568-63.801 52.167-91.164-15.587-4.005-31.637-5.928-47.73-5.717 13.198-7.196 38.116-5.461 57.088-3.726l0.028-1.934 11.321-12.43 11.378 12.942v1.479c19.115-1.764 44.572-3.669 57.998 3.641-16.624-0.273-33.204 1.764-49.266 6.059 38.229 27.335 52.053 60.501 51.684 90.852z" />
<glyph unicode="&#xe916;" d="M0 618.667h1024v-28.444h-1024v28.444z" />
<glyph unicode="&#xe917;" glyph-name="folder-solid" d="M628.991 768h254.849c17.786 0.002 35.379-3.704 51.654-10.879s30.874-17.665 42.867-30.799c12-13.133 21.126-28.623 26.803-45.48 5.67-16.858 7.77-34.712 6.163-52.426l-40.768-448c-2.893-31.802-17.562-61.376-41.139-82.918-23.578-21.536-54.349-33.485-86.285-33.498h-662.337c-31.933 0.013-62.709 11.962-86.285 33.498-23.576 21.542-38.249 51.117-41.139 82.918l-40.768 448c-2.673 29.642 5.067 59.288 21.888 83.84l-2.496 55.744c0 33.948 13.486 66.505 37.49 90.509s56.563 37.491 90.51 37.491h235.008c33.945-0.007 66.497-13.498 90.496-37.504l52.992-52.992c23.999-24.006 56.551-37.497 90.496-37.504zM96.383 760.32c13.739 5.077 28.331 7.637 43.776 7.68h345.344l-45.248 45.248c-11.999 12.003-28.276 18.748-45.248 18.752h-235.008c-16.765 0.003-32.862-6.573-44.83-18.313s-18.851-27.709-19.17-44.471l0.384-8.896z" />
<glyph unicode="&#xe918;" glyph-name="folder-solid2" d="M170.667 106.667c-23.467 0-43.549 8.35-60.245 25.045s-25.059 36.791-25.088 60.288v512c0 23.467 8.363 43.549 25.088 60.245s36.807 25.059 60.245 25.088h256l85.333-85.333h341.333c23.467 0 43.563-8.363 60.288-25.088s25.075-36.807 25.045-60.245v-426.667c0-23.467-8.35-43.563-25.045-60.288s-36.791-25.075-60.288-25.045h-682.667z" />
<glyph unicode="&#xe919;" glyph-name="folder" d="M170.667 106.667c-23.467 0-43.549 8.35-60.245 25.045s-25.059 36.791-25.088 60.288v512c0 23.467 8.363 43.549 25.088 60.245s36.807 25.059 60.245 25.088h256l85.333-85.333h341.333c23.467 0 43.563-8.363 60.288-25.088s25.075-36.807 25.045-60.245v-426.667c0-23.467-8.35-43.563-25.045-60.288s-36.791-25.075-60.288-25.045h-682.667zM170.667 192h682.667v426.667h-376.533l-85.333 85.333h-220.8v-512z" />
<glyph unicode="&#xe91a;" glyph-name="gg_add" d="M85.333 448c0 235.648 191.019 426.667 426.667 426.667s426.667-191.019 426.667-426.667c0-235.648-191.019-426.667-426.667-426.667s-426.667 191.019-426.667 426.667zM512 789.333c-90.527 0-177.347-35.962-241.359-99.974s-99.974-150.832-99.974-241.359c0-90.526 35.962-177.348 99.974-241.361 64.012-64.009 150.832-99.972 241.359-99.972 90.526 0 177.348 35.964 241.361 99.972 64.009 64.013 99.972 150.835 99.972 241.361 0 90.527-35.964 177.347-99.972 241.359-64.013 64.013-150.835 99.974-241.361 99.974zM554.667 661.333c0 11.316-4.497 22.168-12.497 30.17s-18.854 12.497-30.17 12.497c-11.315 0-22.17-4.495-30.17-12.497s-12.497-18.854-12.497-30.17v-170.667h-170.667c-11.316 0-22.168-4.497-30.17-12.497s-12.497-18.854-12.497-30.17c0-11.315 4.495-22.17 12.497-30.17s18.854-12.497 30.17-12.497h170.667v-170.667c0-11.315 4.497-22.17 12.497-30.17s18.854-12.497 30.17-12.497c11.315 0 22.17 4.497 30.17 12.497s12.497 18.854 12.497 30.17v170.667h170.667c11.315 0 22.17 4.497 30.17 12.497s12.497 18.854 12.497 30.17c0 11.315-4.497 22.17-12.497 30.17s-18.854 12.497-30.17 12.497h-170.667v170.667z" />
<glyph unicode="&#xe91b;" glyph-name="ic_round-edit" d="M128 215.040v-129.707c0-11.947 9.387-21.333 21.333-21.333h129.707c5.547 0 11.093 2.133 14.933 6.4l465.92 465.493-160 160-465.493-465.493c-4.267-4.267-6.4-9.387-6.4-15.36zM883.627 659.627c3.955 3.947 7.095 8.636 9.233 13.797 2.142 5.162 3.243 10.695 3.243 16.283s-1.101 11.121-3.243 16.282c-2.138 5.161-5.278 9.85-9.233 13.798l-99.84 99.84c-3.947 3.955-8.636 7.093-13.798 9.234-5.158 2.141-10.692 3.243-16.282 3.243s-11.123-1.102-16.282-3.243c-5.163-2.141-9.852-5.279-13.798-9.234l-78.080-78.080 160-160 78.080 78.080z" />
<glyph unicode="&#xe91c;" glyph-name="ic_sharp-sort" d="M128 192h256v85.333h-256v-85.333zM128 704v-85.333h768v85.333h-768zM128 405.333h512v85.333h-512v-85.333z" />
<glyph unicode="&#xe91e;" glyph-name="icons8_sort" d="M512 844.992l-23.040-21.984-256-256-53.92-55.008h665.952l-53.984 55.040-256 256-23.040 21.952h0.032zM512 753.984l178.016-177.984h-356l177.984 177.984zM179.008 384l53.984-55.040 256-256 23.040-21.952 23.040 21.984 256 256 53.888 55.008h-665.952zM333.984 320h356.032l-178.016-178.016-178.016 178.016z" />
<glyph unicode="&#xe91f;" glyph-name="material-symbols_bookmark-outline" d="M213.333 64v682.667c0 23.467 8.363 43.549 25.088 60.245s36.807 25.059 60.245 25.088h426.667c23.467 0 43.563-8.363 60.288-25.088s25.075-36.807 25.045-60.245v-682.667l-298.667 128-298.667-128zM298.667 194.133l213.333 91.733 213.333-91.733v552.533h-426.667v-552.533z" />
<glyph unicode="&#xe920;" glyph-name="material-symbols_bookmark" d="M213.333 64v682.667c0 23.467 8.363 43.549 25.088 60.245s36.807 25.059 60.245 25.088h426.667c23.467 0 43.563-8.363 60.288-25.088s25.075-36.807 25.045-60.245v-682.667l-298.667 128-298.667-128z" />
<glyph unicode="&#xe921;" glyph-name="material-symbols_download" d="M512 277.333l-213.333 213.333 59.733 61.867 110.933-110.933v347.733h85.333v-347.733l110.933 110.933 59.733-61.867-213.333-213.333zM256 106.667c-23.467 0-43.549 8.35-60.245 25.045s-25.059 36.791-25.088 60.288v128h85.333v-128h512v128h85.333v-128c0-23.467-8.35-43.563-25.045-60.288s-36.791-25.075-60.288-25.045h-512z" />
<glyph unicode="&#xe922;" glyph-name="material-symbols_share" d="M725.333 21.333c-35.554 0-65.779 12.446-90.667 37.333s-37.333 55.113-37.333 90.667c0 4.267 1.067 14.221 3.2 29.867l-299.733 174.933c-11.378-10.667-24.533-19.029-39.467-25.088s-30.933-9.075-48-9.045c-35.555 0-65.778 12.446-90.667 37.333s-37.333 55.113-37.333 90.667c0 35.554 12.445 65.779 37.333 90.667 24.889 24.889 55.111 37.333 90.667 37.333 17.067 0 33.067-3.029 48-9.088s28.089-14.407 39.467-25.045l299.733 174.933c-1.421 4.978-2.304 9.771-2.645 14.379s-0.525 9.771-0.555 15.488c0 35.555 12.446 65.778 37.333 90.667s55.113 37.333 90.667 37.333c35.554 0 65.779-12.445 90.667-37.333s37.333-55.111 37.333-90.667c0-35.555-12.446-65.778-37.333-90.667s-55.113-37.333-90.667-37.333c-17.067 0-33.067 3.029-48 9.088s-28.087 14.407-39.467 25.045l-299.733-174.933c1.422-4.979 2.318-9.783 2.688-14.421s0.541-9.783 0.512-15.445c-0.029-5.662-0.199-10.825-0.512-15.488s-1.209-9.459-2.688-14.379l299.733-174.933c11.379 10.667 24.533 19.017 39.467 25.045s30.933 9.058 48 9.088c35.554 0 65.779-12.446 90.667-37.333s37.333-55.113 37.333-90.667c0-35.554-12.446-65.779-37.333-90.667s-55.113-37.333-90.667-37.333z" />
<glyph unicode="&#xe923;" glyph-name="material-symbols_upload" d="M469.333 277.333v347.733l-110.933-110.933-59.733 61.867 213.333 213.333 213.333-213.333-59.733-61.867-110.933 110.933v-347.733h-85.333zM256 106.667c-23.467 0-43.549 8.35-60.245 25.045s-25.059 36.791-25.088 60.288v128h85.333v-128h512v128h85.333v-128c0-23.467-8.35-43.563-25.045-60.288s-36.791-25.075-60.288-25.045h-512z" />
<glyph unicode="&#xe924;" glyph-name="mdi_calendar" d="M810.667 149.333h-597.333v469.333h597.333zM682.667 917.333v-85.333h-341.333v85.333h-85.333v-85.333h-42.667c-47.36 0-85.333-37.973-85.333-85.333v-597.333c0-22.63 8.99-44.335 24.994-60.339s37.708-24.994 60.34-24.994h597.333c22.63 0 44.335 8.99 60.339 24.994s24.994 37.709 24.994 60.339v597.333c0 22.632-8.99 44.337-24.994 60.34s-37.709 24.994-60.339 24.994h-42.667v85.333zM725.333 448h-213.333v-213.333h213.333v213.333z" />
<glyph unicode="&#xe925;" glyph-name="mdi_clock-outline" d="M512 106.667c90.526 0 177.348 35.964 241.361 99.972 64.009 64.013 99.972 150.835 99.972 241.361 0 90.527-35.964 177.347-99.972 241.359-64.013 64.013-150.835 99.974-241.361 99.974-90.527 0-177.347-35.962-241.359-99.974s-99.974-150.832-99.974-241.359c0-90.526 35.962-177.348 99.974-241.361 64.012-64.009 150.832-99.972 241.359-99.972zM512 874.667c56.030 0 111.514-11.036 163.277-32.478 51.767-21.442 98.803-52.87 138.423-92.49s71.044-86.655 92.489-138.421c21.44-51.765 32.478-107.248 32.478-163.278 0-113.161-44.954-221.683-124.966-301.7-80.017-80.013-188.54-124.966-301.7-124.966-235.947 0-426.667 192-426.667 426.667 0 113.159 44.952 221.683 124.968 301.699s188.54 124.968 301.699 124.968zM533.333 661.333v-224l192-113.92-32-52.48-224 134.4v256h64z" />
<glyph unicode="&#xe926;" glyph-name="mdi_clock" d="M512 874.667c-56.030 0-111.513-11.036-163.278-32.478s-98.801-52.87-138.421-92.49c-80.015-80.016-124.968-188.54-124.968-301.699 0-113.161 44.952-221.683 124.968-301.7 39.62-39.62 86.655-71.044 138.421-92.489 51.765-21.44 107.248-32.478 163.278-32.478 113.161 0 221.683 44.954 301.7 124.966 80.013 80.017 124.966 188.54 124.966 301.7 0 56.030-11.038 111.513-32.478 163.278-21.444 51.766-52.868 98.801-92.489 138.421s-86.656 71.048-138.423 92.49c-51.763 21.442-107.247 32.478-163.277 32.478zM691.2 268.8l-221.867 136.533v256h64v-221.867l192-115.2-34.133-55.467z" />
<glyph unicode="&#xe927;" glyph-name="mdi_comment-outline" d="M384 21.333c-11.316 0-22.168 4.497-30.17 12.497s-12.497 18.854-12.497 30.17v128h-170.667c-22.632 0-44.337 8.99-60.34 24.994s-24.994 37.709-24.994 60.339v512c0 22.632 8.99 44.337 24.994 60.34s37.708 24.994 60.34 24.994h682.667c22.63 0 44.335-8.99 60.339-24.994s24.994-37.708 24.994-60.34v-512c0-22.63-8.99-44.335-24.994-60.339s-37.709-24.994-60.339-24.994h-260.267l-157.867-158.293c-8.533-8.107-19.2-12.373-29.867-12.373h-21.333zM426.667 277.333v-131.413l131.413 131.413h295.253v512h-682.667v-512h256z" />
<glyph unicode="&#xe928;" glyph-name="mdi_comment" d="M384 21.333c-11.316 0-22.168 4.497-30.17 12.497s-12.497 18.854-12.497 30.17v128h-170.667c-22.632 0-44.337 8.99-60.34 24.994s-24.994 37.709-24.994 60.339v512c0 22.632 8.99 44.337 24.994 60.34s37.708 24.994 60.34 24.994h682.667c22.63 0 44.335-8.99 60.339-24.994s24.994-37.708 24.994-60.34v-512c0-22.63-8.99-44.335-24.994-60.339s-37.709-24.994-60.339-24.994h-260.267l-157.867-158.293c-8.533-8.107-19.2-12.373-29.867-12.373h-21.333z" />
<glyph unicode="&#xe929;" glyph-name="mdi_sort" d="M768 64l-170.667 170.667h128v426.667h-128l170.667 170.667 170.667-170.667h-128v-426.667h128zM85.333 149.333v85.333h426.667v-85.333zM85.333 405.333v85.333h298.667v-85.333zM85.333 661.333v85.333h170.667v-85.333h-170.667z" />
<glyph unicode="&#xe92a;" glyph-name="mdi_user" d="M512 789.333c45.265 0 88.674-17.981 120.678-49.987 32.009-32.006 49.988-75.416 49.988-120.68s-17.98-88.674-49.988-120.678c-32.004-32.009-75.413-49.988-120.678-49.988s-88.673 17.98-120.68 49.988c-32.006 32.004-49.987 75.415-49.987 120.678s17.981 88.673 49.987 120.68c32.006 32.006 75.415 49.987 120.68 49.987zM512 362.667c188.587 0 341.333-76.373 341.333-170.667v-85.333h-682.667v85.333c0 94.293 152.747 170.667 341.333 170.667z" />
<glyph unicode="&#xe92b;" glyph-name="mingcute_calendar-fill" d="M896 448v-298.667c0-22.63-8.99-44.335-24.994-60.339s-37.709-24.994-60.339-24.994h-597.333c-22.632 0-44.337 8.99-60.34 24.994s-24.994 37.709-24.994 60.339v298.667h768zM682.667 832c11.315 0 22.17-4.495 30.17-12.497s12.497-18.854 12.497-30.17v-42.667h85.333c22.63 0 44.335-8.99 60.339-24.994s24.994-37.708 24.994-60.34v-128h-768v128c0 22.632 8.99 44.337 24.994 60.34s37.708 24.994 60.34 24.994h85.333v42.667c0 11.316 4.495 22.168 12.497 30.17s18.854 12.497 30.17 12.497c11.316 0 22.168-4.495 30.17-12.497s12.497-18.854 12.497-30.17v-42.667h256v42.667c0 11.316 4.497 22.168 12.497 30.17s18.854 12.497 30.17 12.497z" />
<glyph unicode="&#xe92c;" glyph-name="mingcute_calendar-line" d="M682.667 832c10.449-0.001 20.535-3.838 28.348-10.783 7.808-6.944 12.796-16.513 14.020-26.892l0.299-4.992v-42.667h85.333c21.53 0.007 42.266-8.124 58.048-22.763 15.787-14.639 25.459-34.703 27.072-56.171l0.213-6.4v-512c0.009-21.53-8.124-42.266-22.763-58.048-14.639-15.787-34.701-25.459-56.171-27.072l-6.4-0.213h-597.333c-21.529-0.009-42.264 8.124-58.050 22.763s-25.455 34.701-27.070 56.171l-0.213 6.4v512c-0.007 21.529 8.124 42.264 22.763 58.050s34.703 25.455 56.171 27.070l6.4 0.213h85.333v42.667c0.012 10.875 4.176 21.335 11.642 29.242s17.668 12.666 28.524 13.303c10.857 0.637 21.546-2.895 29.885-9.874s13.699-16.881 14.983-27.68l0.299-4.992v-42.667h256v42.667c0 11.316 4.497 22.168 12.497 30.17s18.854 12.497 30.17 12.497zM810.667 448h-597.333v-298.667h597.333v298.667zM810.667 661.333h-597.333v-128h597.333v128z" />
<glyph unicode="&#xe92d;" glyph-name="mingcute_user-1-line" d="M682.667 362.667c54.976-0.004 107.827-21.227 147.533-59.251 39.706-38.020 63.202-89.903 65.587-144.823l0.213-9.259v-85.333c-0.013-10.876-4.177-21.333-11.639-29.244-7.467-7.906-17.673-12.663-28.527-13.303-10.854-0.636-21.547 2.897-29.884 9.877-8.341 6.98-13.7 16.879-14.985 27.678l-0.299 4.992v85.333c0 32.649-12.471 64.064-34.871 87.821-22.396 23.753-53.026 38.050-85.619 39.966l-7.509 0.213h-341.333c-32.649 0-64.064-12.471-87.819-34.871-23.755-22.396-38.052-53.026-39.968-85.619l-0.213-7.509v-85.333c-0.012-10.876-4.176-21.333-11.642-29.244-7.465-7.906-17.668-12.663-28.524-13.303-10.857-0.636-21.546 2.897-29.885 9.877s-13.699 16.879-14.983 27.678l-0.299 4.992v85.333c0.003 54.976 21.228 107.827 59.249 147.533s89.903 63.202 144.825 65.587l9.259 0.213h341.333zM512 874.667c56.58 0 110.844-22.476 150.848-62.484 40.009-40.008 62.485-94.27 62.485-150.849s-22.477-110.842-62.485-150.848c-40.004-40.009-94.268-62.485-150.848-62.485s-110.842 22.477-150.849 62.485c-40.008 40.006-62.484 94.269-62.484 150.848s22.476 110.842 62.484 150.849c40.008 40.008 94.269 62.484 150.849 62.484zM512 789.333c-16.811 0-33.455-3.311-48.986-9.743-15.526-6.433-29.636-15.861-41.524-27.747-11.886-11.886-21.314-25.996-27.747-41.526s-9.743-32.174-9.743-48.983c0-16.809 3.311-33.454 9.743-48.983s15.861-29.64 27.747-41.526c11.888-11.886 25.998-21.314 41.524-27.747 15.531-6.432 32.175-9.743 48.986-9.743 33.946 0 66.505 13.486 90.509 37.49s37.491 56.562 37.491 90.51c0 33.948-13.487 66.505-37.491 90.51s-56.563 37.49-90.509 37.49z" />
<glyph unicode="&#xe92e;" glyph-name="mingcute_user-2-fill" d="M682.667 362.667c54.976-0.004 107.827-21.227 147.533-59.251 39.706-38.020 63.202-89.903 65.587-144.823l0.213-9.259v-42.667c0.009-21.53-8.124-42.266-22.763-58.048-14.639-15.787-34.701-25.459-56.171-27.072l-6.4-0.213h-597.333c-21.529-0.009-42.264 8.124-58.050 22.763s-25.455 34.701-27.070 56.171l-0.213 6.4v42.667c0.003 54.976 21.228 107.827 59.249 147.533s89.903 63.202 144.825 65.587l9.259 0.213h341.333zM512 874.667c56.58 0 110.844-22.476 150.848-62.484 40.009-40.008 62.485-94.27 62.485-150.849s-22.477-110.842-62.485-150.848c-40.004-40.009-94.268-62.485-150.848-62.485s-110.842 22.477-150.849 62.485c-40.008 40.006-62.484 94.269-62.484 150.848s22.476 110.842 62.484 150.849c40.008 40.008 94.269 62.484 150.849 62.484z" />
<glyph unicode="&#xe92f;" glyph-name="mingcute_user-2-line" d="M682.667 362.667c54.976-0.004 107.827-21.227 147.533-59.251 39.706-38.020 63.202-89.903 65.587-144.823l0.213-9.259v-42.667c0.009-21.53-8.124-42.266-22.763-58.048-14.639-15.787-34.701-25.459-56.171-27.072l-6.4-0.213h-597.333c-21.529-0.009-42.264 8.124-58.050 22.763s-25.455 34.701-27.070 56.171l-0.213 6.4v42.667c0.003 54.976 21.228 107.827 59.249 147.533s89.903 63.202 144.825 65.587l9.259 0.213h341.333zM682.667 277.333h-341.333c-32.649 0-64.064-12.471-87.819-34.871-23.755-22.396-38.052-53.026-39.968-85.619l-0.213-7.509v-42.667h597.333v42.667c0 32.649-12.471 64.064-34.871 87.821-22.396 23.753-53.026 38.050-85.619 39.966l-7.509 0.213zM512 874.667c56.58 0 110.844-22.476 150.848-62.484 40.009-40.008 62.485-94.27 62.485-150.849s-22.477-110.842-62.485-150.848c-40.004-40.009-94.268-62.485-150.848-62.485s-110.842 22.477-150.849 62.485c-40.008 40.006-62.484 94.269-62.484 150.848s22.476 110.842 62.484 150.849c40.008 40.008 94.269 62.484 150.849 62.484zM512 789.333c-16.811 0-33.455-3.311-48.986-9.743-15.526-6.433-29.636-15.861-41.524-27.747-11.886-11.886-21.314-25.996-27.747-41.526s-9.743-32.174-9.743-48.983c0-16.809 3.311-33.454 9.743-48.983s15.861-29.64 27.747-41.526c11.888-11.886 25.998-21.314 41.524-27.747 15.531-6.432 32.175-9.743 48.986-9.743 33.946 0 66.505 13.486 90.509 37.49s37.491 56.562 37.491 90.51c0 33.948-13.487 66.505-37.491 90.51s-56.563 37.49-90.509 37.49z" />
<glyph unicode="&#xe930;" glyph-name="moon-outline" d="M516.267 21.333c-59.733 0-115.726 11.379-167.979 34.133s-97.763 53.504-136.533 92.245c-38.77 38.741-69.533 84.254-92.288 136.533s-34.133 108.288-34.133 168.021c0 103.822 33.067 195.371 99.2 274.645s150.4 128.526 252.8 147.755c-12.8-70.4-8.887-139.207 11.733-206.421s56.179-126.051 106.667-176.512c50.487-50.462 109.342-86.016 176.555-106.667s136.009-24.563 206.379-11.733c-18.487-102.4-67.554-186.667-147.2-252.8s-171.379-99.2-275.2-99.2zM516.267 106.667c62.579 0 120.533 15.646 173.867 46.933s95.287 74.313 125.867 129.067c-61.154 5.687-119.113 21.163-173.867 46.421s-103.821 59.563-147.2 102.912c-43.379 43.349-77.867 92.416-103.467 147.2s-40.889 112.739-45.867 173.867c-54.755-30.578-97.593-72.718-128.512-126.421s-46.393-111.829-46.421-174.379c0-96 33.607-177.609 100.821-244.821s148.807-100.809 244.779-100.779z" />
<glyph unicode="&#xe931;" glyph-name="moon-solid" d="M516.267 64c-53.705 0-104.093 10.142-151.168 30.421s-88.206 48.030-123.392 83.243c-35.186 35.213-62.933 76.361-83.243 123.435s-30.464 97.463-30.464 151.168c0 83.058 23.893 157.938 71.68 224.64s110.877 113.209 189.269 139.52c-2.958-66.56 7.239-130.574 30.592-192.043 23.326-61.469 58.594-115.798 105.813-162.987 47.219-47.219 101.547-82.505 162.987-105.856s125.47-33.549 192.085-30.592c-26.167-78.336-72.649-141.41-139.435-189.227s-141.696-71.723-224.725-71.723z" />
<glyph unicode="&#xe932;" glyph-name="mynaui_plus-solid" d="M554.667 704c0 11.316-4.497 22.168-12.497 30.17s-18.854 12.497-30.17 12.497c-11.315 0-22.17-4.495-30.17-12.497s-12.497-18.854-12.497-30.17v-213.333h-213.333c-11.316 0-22.168-4.497-30.17-12.497s-12.497-18.854-12.497-30.17c0-11.315 4.495-22.17 12.497-30.17s18.854-12.497 30.17-12.497h213.333v-213.333c0-11.315 4.497-22.17 12.497-30.17s18.854-12.497 30.17-12.497c11.315 0 22.17 4.497 30.17 12.497s12.497 18.854 12.497 30.17v213.333h213.333c11.315 0 22.17 4.497 30.17 12.497s12.497 18.854 12.497 30.17c0 11.315-4.497 22.17-12.497 30.17s-18.854 12.497-30.17 12.497h-213.333v213.333z" />
<glyph unicode="&#xe933;" glyph-name="ph_plus-fill" d="M832 832h-640c-16.974 0-33.252-6.743-45.255-18.745s-18.745-28.281-18.745-45.255v-640c0-16.973 6.743-33.254 18.745-45.254s28.281-18.746 45.255-18.746h640c16.973 0 33.254 6.746 45.254 18.746s18.746 28.282 18.746 45.254v640c0 16.974-6.746 33.252-18.746 45.255s-28.282 18.745-45.254 18.745zM736 416h-192v-192c0-8.486-3.372-16.627-9.373-22.63-6.001-5.997-14.14-9.37-22.627-9.37s-16.627 3.373-22.627 9.37c-6.001 6.003-9.373 14.144-9.373 22.63v192h-192c-8.487 0-16.627 3.372-22.627 9.373s-9.373 14.14-9.373 22.627c0 8.487 3.372 16.627 9.373 22.627s14.14 9.373 22.627 9.373h192v192c0 8.487 3.372 16.627 9.373 22.627s14.14 9.373 22.627 9.373c8.487 0 16.627-3.372 22.627-9.373s9.373-14.14 9.373-22.627v-192h192c8.486 0 16.627-3.372 22.63-9.373 5.997-6.001 9.37-14.14 9.37-22.627s-3.373-16.627-9.37-22.627c-6.003-6.001-14.144-9.373-22.63-9.373z" />
<glyph unicode="&#xe934;" glyph-name="pie-chart" d="M864 442.001h-357.999v358c0 4.4-3.6 8-8 8h-26c-52.53 0.086-104.559-10.216-153.092-30.312s-92.615-49.592-129.708-86.788c-36.529-36.417-65.635-79.583-85.7-127.1-20.88-49.284-31.594-102.276-31.5-155.8-0.086-52.53 10.216-104.557 30.312-153.095 20.097-48.531 49.591-92.614 86.788-129.702 36.7-36.704 79.5-65.6 127.1-85.702 49.284-20.877 102.276-31.597 155.8-31.501 52.53-0.083 104.559 10.214 153.092 30.31 48.532 20.102 92.616 49.594 129.71 86.79 36.698 36.698 65.6 79.501 85.696 127.098 20.883 49.286 31.597 102.278 31.501 155.802v26c0 4.4-3.597 8-8 8zM705.702 172.198c-30.97-30.72-67.69-55.034-108.067-71.539-40.377-16.512-83.614-24.89-127.235-24.659-88.1 0.403-170.9 34.899-233.2 97.203-62.7 62.701-97.2 146.099-97.2 234.797 0 88.7 34.5 172.1 97.2 234.8 54.6 54.6 124.9 87.9 200.8 95.5v-364.3h364.297c-7.699-76.298-41.299-146.999-96.595-201.802zM952 497.601l-2.598 28.2c-8.499 92.1-49.402 179-115.2 244.6-65.85 65.72-152.57 106.394-245.201 115l-28.3 2.6c-4.7 0.4-8.7-3.2-8.7-7.9v-384.1c0-4.4 3.6-8 8-8l383.999 1c4.698 0 8.403 4 8 8.6zM619.8 555.801v256.6c62.996-13.185 120.801-44.381 166.401-89.8 45.696-45.6 76.998-103.6 89.997-166.1l-256.398-0.7z" />
<glyph unicode="&#xe935;" glyph-name="square_add-solid" d="M313.344 788.565c-35.677-3.957-68.972-19.846-94.488-45.092s-41.761-58.369-46.098-94.001c-15.639-133.875-15.639-269.111 0-402.987 8.576-73.344 67.541-130.901 140.629-139.093 132.007-14.618 265.221-14.618 397.227 0 73.088 8.192 132.053 65.749 140.629 139.093 15.642 133.888 15.642 269.141 0 403.029-8.576 73.344-67.541 130.901-140.629 139.093-132.006 14.615-265.22 14.615-397.227 0zM512 661.035c8.486 0 16.627-3.372 22.626-9.373 6.003-6.001 9.374-14.141 9.374-22.627v-149.035h149.035c8.486 0 16.627-3.371 22.626-9.374 6.003-5.999 9.374-14.14 9.374-22.626s-3.371-16.627-9.374-22.626c-5.999-6.003-14.14-9.374-22.626-9.374h-149.035v-149.035c0-8.486-3.371-16.627-9.374-22.626-5.999-6.003-14.14-9.374-22.626-9.374s-16.627 3.371-22.626 9.374c-6.003 5.999-9.374 14.14-9.374 22.626v149.035h-149.035c-8.487 0-16.626 3.371-22.627 9.374-6.001 5.999-9.373 14.14-9.373 22.626s3.371 16.627 9.373 22.626c6.001 6.003 14.14 9.374 22.627 9.374h149.035v149.035c0 8.487 3.371 16.626 9.374 22.627 5.999 6.001 14.14 9.373 22.626 9.373z" />
<glyph unicode="&#xe936;" glyph-name="square-add-outline" d="M298.965 448c0 8.486 3.372 16.627 9.373 22.626 6.001 6.003 14.141 9.374 22.627 9.374h149.035v149.035c0 8.487 3.371 16.626 9.374 22.627 5.999 6.001 14.14 9.373 22.626 9.373s16.627-3.372 22.626-9.373c6.003-6.001 9.374-14.141 9.374-22.627v-149.035h149.035c8.486 0 16.627-3.371 22.626-9.374 6.003-5.999 9.374-14.14 9.374-22.626s-3.371-16.627-9.374-22.626c-5.999-6.003-14.14-9.374-22.626-9.374h-149.035v-149.035c0-8.486-3.371-16.627-9.374-22.626-5.999-6.003-14.14-9.374-22.626-9.374s-16.627 3.371-22.626 9.374c-6.003 5.999-9.374 14.14-9.374 22.626v149.035h-149.035c-8.487 0-16.626 3.371-22.627 9.374-6.001 5.999-9.373 14.14-9.373 22.626zM312.192 799.189c132.8 14.723 266.816 14.723 399.616 0 77.952-8.704 140.885-70.101 150.016-148.48 15.787-134.699 15.787-270.763 0-405.461-9.173-78.379-72.107-139.733-150.016-148.48-132.8-14.724-266.816-14.724-399.616 0-77.952 8.747-140.885 70.101-150.016 148.48-15.716 134.699-15.716 270.763 0 405.461 9.131 78.379 72.107 139.776 150.016 148.48zM704.725 735.616c-128.090 14.198-257.361 14.198-385.45 0-23.712-2.631-45.845-13.178-62.824-29.94s-27.809-38.757-30.744-62.433c-15.175-129.749-15.175-260.821 0-390.571 2.944-23.667 13.779-45.653 30.757-62.409 16.977-16.751 39.105-27.294 62.811-29.922 127.018-14.165 258.432-14.165 385.45 0 23.697 2.637 45.815 13.184 62.784 29.935s27.797 38.733 30.741 62.396c15.177 129.749 15.177 260.821 0 390.571-2.953 23.655-13.786 45.626-30.75 62.369-16.969 16.743-39.083 27.283-62.775 29.919z" />
<glyph unicode="&#xe937;" glyph-name="sun-filled" d="M512 149.333c10.449 0 20.535-3.84 28.348-10.782 7.808-6.946 12.796-16.512 14.020-26.893l0.299-4.992v-42.667c-0.013-10.876-4.177-21.333-11.639-29.244-7.467-7.906-17.668-12.663-28.527-13.303-10.854-0.636-21.547 2.897-29.884 9.877-8.341 6.98-13.7 16.879-14.985 27.678l-0.299 4.992v42.667c0 11.315 4.497 22.17 12.497 30.17s18.854 12.497 30.17 12.497zM781.355 238.507l4.011-3.541 29.867-29.867c7.654-7.68 12.096-17.98 12.425-28.817 0.333-10.833-3.473-21.389-10.641-29.521-7.172-8.128-17.165-13.227-27.959-14.255-10.79-1.028-21.568 2.091-30.144 8.721l-4.011 3.541-29.867 29.867c-7.364 7.351-11.785 17.135-12.437 27.52-0.653 10.381 2.509 20.646 8.896 28.86 6.383 8.213 15.548 13.811 25.771 15.744 10.223 1.929 20.8 0.055 29.739-5.265l4.352-2.987zM298.966 234.965c7.346-7.347 11.759-17.122 12.411-27.49s-2.502-20.621-8.87-28.83l-3.541-4.011-29.867-29.867c-7.678-7.65-17.981-12.096-28.817-12.425-10.835-0.333-21.39 3.473-29.521 10.641-8.131 7.172-13.228 17.169-14.256 27.959s2.090 21.568 8.721 30.144l3.541 4.011 29.867 29.867c8.001 8 18.851 12.493 30.165 12.493s22.164-4.493 30.165-12.493zM170.667 490.667c10.875-0.013 21.335-4.177 29.242-11.639 7.908-7.467 12.666-17.673 13.304-28.527s-2.895-21.547-9.875-29.884c-6.98-8.341-16.881-13.7-27.679-14.985l-4.992-0.299h-42.667c-10.875 0.013-21.335 4.177-29.242 11.639-7.908 7.467-12.666 17.673-13.304 28.527s2.895 21.547 9.875 29.884c6.98 8.341 16.881 13.7 27.68 14.985l4.992 0.299h42.667zM896 490.667c10.876-0.013 21.333-4.177 29.244-11.639 7.906-7.467 12.663-17.673 13.303-28.527 0.636-10.854-2.897-21.547-9.877-29.884-6.976-8.341-16.879-13.7-27.678-14.985l-4.992-0.299h-42.667c-10.876 0.013-21.333 4.177-29.244 11.639-7.906 7.467-12.663 17.673-13.303 28.527-0.636 10.854 2.897 21.547 9.877 29.884 6.98 8.341 16.879 13.7 27.678 14.985l4.992 0.299h42.667zM265.088 754.773l4.011-3.541 29.867-29.867c7.652-7.678 12.095-17.981 12.425-28.816s-3.475-21.39-10.644-29.521c-7.17-8.131-17.165-13.228-27.956-14.256s-21.569 2.090-30.145 8.721l-4.011 3.541-29.867 29.867c-7.335 7.352-11.736 17.128-12.379 27.493s2.517 20.61 8.887 28.812c6.37 8.202 15.513 13.799 25.715 15.742s20.763 0.098 29.702-5.189l4.395-2.987zM815.232 751.232c7.347-7.347 11.759-17.122 12.412-27.491s-2.5-20.62-8.87-28.829l-3.541-4.011-29.867-29.867c-7.68-7.652-17.98-12.095-28.817-12.426-10.833-0.331-21.389 3.475-29.521 10.644-8.128 7.169-13.227 17.165-14.255 27.956s2.091 21.57 8.721 30.145l3.541 4.011 29.867 29.867c8 7.999 18.85 12.492 30.165 12.492s22.165-4.494 30.165-12.492zM512 874.667c10.449-0.001 20.535-3.838 28.348-10.783 7.808-6.944 12.796-16.513 14.020-26.892l0.299-4.992v-42.667c-0.013-10.875-4.177-21.335-11.639-29.242-7.467-7.907-17.668-12.666-28.527-13.303-10.854-0.637-21.547 2.895-29.884 9.874-8.341 6.98-13.7 16.881-14.985 27.68l-0.299 4.992v42.667c0 11.316 4.497 22.168 12.497 30.17s18.854 12.497 30.17 12.497zM512 661.333c41.801 0.003 82.679-12.275 117.559-35.307 34.884-23.032 62.229-55.804 78.647-94.246 16.414-38.438 21.175-80.858 13.692-121.98-7.484-41.126-26.884-79.142-55.795-109.338-28.907-30.191-66.048-51.226-106.807-60.489-40.759-9.267-83.341-6.353-122.462 8.375-39.116 14.733-73.046 40.627-97.572 74.475s-38.568 74.155-40.382 115.917l-0.213 9.259 0.213 9.259c2.386 54.921 25.882 106.804 65.588 144.825s92.556 59.247 147.532 59.249z" />
<glyph unicode="&#xe939;" glyph-name="tdesign_edit" d="M671.915 834.262c16.004 15.997 37.705 24.984 60.331 24.984s44.326-8.987 60.331-24.984l105.6-105.6c7.927-7.924 14.217-17.333 18.509-27.689 4.288-10.355 6.498-21.455 6.498-32.663s-2.21-22.308-6.498-32.664c-4.292-10.355-10.581-19.764-18.509-27.688l-507.435-507.435-272.213-45.909 45.952 272.213 507.435 507.435zM662.144 703.83l105.6-105.6 70.101 70.101-105.6 105.557-70.101-70.059zM707.371 537.856l-105.557 105.6-357.717-357.718-21.461-127.019 127.019 21.419 357.717 357.718z" />
<glyph unicode="&#xe93a;" glyph-name="typcn_info-outline" d="M512 724.907c23.893 0 47.787-14.933 65.707-45.227l252.16-420.267c36.693-60.587 8.533-110.080-61.867-110.080h-512c-70.4 0-98.56 49.493-62.293 109.653l252.16 420.267c18.347 30.72 42.24 45.653 66.133 45.653zM512 810.24c-55.467 0-105.813-31.573-139.093-86.613l-252.16-420.693c-18.773-31.573-28.16-64-28.16-95.147 0-23.893 5.973-47.36 17.92-68.267 27.307-47.787 80.213-75.52 145.493-75.52h512c65.28 0 118.187 27.733 145.493 75.52 12.373 21.76 18.347 45.653 17.92 70.4-0.427 30.293-9.813 62.293-28.16 93.013l-252.16 420.267c-33.28 55.467-83.627 87.040-139.093 87.040zM576 245.333c0 0-30.293-15.36-45.653-7.68s-18.347 23.040-9.813 49.067l17.493 52.053c17.067 52.053-5.12 88.747-46.080 90.88-53.76 2.987-86.187-35.413-86.187-35.413s30.293 15.36 45.653 7.68c15.36-7.68 18.347-23.040 9.813-49.067l-17.493-52.053c-17.067-52.053 5.12-88.32 46.080-90.88 53.76-2.56 86.187 35.413 86.187 35.413zM512 477.867c30.635 0 55.467 24.832 55.467 55.467 0 30.633-24.832 55.467-55.467 55.467s-55.467-24.833-55.467-55.467c0-30.635 24.832-55.467 55.467-55.467z" />
<glyph unicode="&#xe93b;" glyph-name="typcn_info" d="M903.253 302.933l-252.16 420.267c-33.28 55.467-83.627 87.040-139.093 87.040s-105.813-31.573-139.093-86.613l-252.16-420.693c-18.773-31.147-28.16-63.573-28.16-94.293 0-24.32 5.973-48.213 17.92-69.12 27.307-47.787 80.213-75.52 145.493-75.52h512c65.28 0 118.187 27.733 145.493 75.52 11.947 20.907 17.92 43.52 17.92 67.413 0.427 31.573-8.96 64.427-28.16 96zM512 599.467c36.267 0 66.133-29.867 66.133-66.133s-29.44-66.133-66.133-66.133c-36.267 0-66.133 29.867-66.133 66.133 0 36.693 29.44 66.133 66.133 66.133zM584.107 238.507c-1.28-1.707-34.133-39.253-88.32-39.253h-6.4c-21.76 1.28-39.68 10.667-50.347 26.88-13.227 20.053-15.36 47.36-5.12 77.653l17.493 52.053c9.813 29.013 0.427 33.707-4.693 36.267l-5.973 0.853c-10.667 0-25.6-6.4-30.293-8.96-4.267-2.133-9.813-1.28-13.227 2.987-2.987 4.267-2.987 9.813 0.427 13.653 1.28 1.707 37.12 42.24 94.72 38.827 21.76-1.28 39.68-10.667 50.347-26.88 13.653-20.053 15.36-47.36 5.12-78.080l-17.493-52.053c-9.813-29.013-0.427-33.707 4.693-36.267l5.973-0.853c10.667 0 25.6 6.4 30.293 8.533 4.693 2.56 9.813 1.28 13.227-2.987 2.987-2.987 2.987-8.533-0.427-12.373z" />
<glyph unicode="&#xe93c;" glyph-name="weui_arrow-filled" horiz-adv-x="512" d="M433.365 417.664l-241.365-241.365-60.331 60.331 211.2 211.2-211.2 211.2 60.331 60.331 241.365-241.365c8-8 12.493-18.85 12.493-30.165s-4.493-22.165-12.493-30.165z" />
<glyph unicode="&#xe93d;" glyph-name="weui_info-filled" d="M512 21.333c-235.648 0-426.667 191.019-426.667 426.667s191.019 426.667 426.667 426.667c235.648 0 426.667-191.019 426.667-426.667s-191.019-426.667-426.667-426.667zM480 533.333v-298.667h64v298.667h-64zM512 576c11.315 0 22.17 4.495 30.17 12.497s12.497 18.854 12.497 30.17c0 11.316-4.497 22.168-12.497 30.17s-18.854 12.497-30.17 12.497c-11.315 0-22.17-4.495-30.17-12.497s-12.497-18.854-12.497-30.17c0-11.316 4.497-22.168 12.497-30.17s18.854-12.497 30.17-12.497z" />
</font>
</defs>
</svg>
